<?xml version="1.0"?>
<svg xmlns="http://www.w3.org/2000/svg" xmlns:xlink="http://www.w3.org/1999/xlink" xmlns:svgjs="http://svgjs.com/svgjs" version="1.1" width="512" height="512" x="0" y="0" viewBox="0 0 512 512" style="enable-background:new 0 0 512 512" xml:space="preserve" class=""><circle r="256" cx="256" cy="256" fill="#f0f2f3" shape="circle"/><g transform="matrix(0.8700000000000001,0,0,0.8700000000000001,33.27999999999997,33.27999999999997)">
<path xmlns="http://www.w3.org/2000/svg" style="" d="M512,256c0,82.317-38.86,155.564-99.234,202.397C369.455,492.001,315.068,512,256,512  s-113.455-19.999-156.766-53.603C38.86,411.564,0,338.317,0,256C0,114.615,114.615,0,256,0S512,114.615,512,256z" fill="#f2f2f2" data-original="#f2f2f2" class=""/>
<path xmlns="http://www.w3.org/2000/svg" style="" d="M441.992,119.474l-29.226,338.923C369.455,492.001,315.068,512,256,512  s-113.455-19.999-156.766-53.603L70.008,119.474H441.992z" fill="#006bc0" data-original="#006bc0"/>
<polygon xmlns="http://www.w3.org/2000/svg" style="" points="255.997,151.338 255.997,505.296 378.269,470.777 405.545,151.338 " fill="#0096dc" data-original="#0096dc"/>
<polygon xmlns="http://www.w3.org/2000/svg" style="" points="364.036,289.787 275.85,289.787 367.999,242.89 371.981,195.746 140.013,195.746   144.072,243.811 237.189,243.811 147.845,288.484 152.002,337.723 152.002,337.723 311.376,337.723 306.152,396.366 255.997,409.95   203.752,395.321 202.446,358.75 153.778,358.75 159.866,430.848 255.997,458.015 352.127,430.848 364.039,289.779 " fill="#ffffff" data-original="#ffffff"/>
<g xmlns="http://www.w3.org/2000/svg">
	<polygon style="" points="165.352,67.224 165.352,33.787 213.417,33.787 213.417,15.676 147.937,15.676    147.937,85.335 213.417,85.335 213.417,67.224  " fill="#222123" data-original="#222123"/>
	<polygon style="" points="241.542,42.93 241.542,34.57 289.347,34.57 289.347,33.787 289.347,15.676 223.866,15.676    223.866,58.864 270.799,58.864 270.799,67.224 223.866,67.224 223.866,85.335 289.347,85.335 289.347,67.224 289.347,42.93  " fill="#222123" data-original="#222123"/>
	<polygon style="" points="316.252,42.93 316.252,34.57 364.056,34.57 364.056,33.787 364.056,15.676 298.576,15.676    298.576,58.864 345.509,58.864 345.509,67.224 298.576,67.224 298.576,85.335 364.056,85.335 364.056,67.224 364.056,42.93  " fill="#222123" data-original="#222123"/>
</g>
<g xmlns="http://www.w3.org/2000/svg">
</g>
<g xmlns="http://www.w3.org/2000/svg">
</g>
<g xmlns="http://www.w3.org/2000/svg">
</g>
<g xmlns="http://www.w3.org/2000/svg">
</g>
<g xmlns="http://www.w3.org/2000/svg">
</g>
<g xmlns="http://www.w3.org/2000/svg">
</g>
<g xmlns="http://www.w3.org/2000/svg">
</g>
<g xmlns="http://www.w3.org/2000/svg">
</g>
<g xmlns="http://www.w3.org/2000/svg">
</g>
<g xmlns="http://www.w3.org/2000/svg">
</g>
<g xmlns="http://www.w3.org/2000/svg">
</g>
<g xmlns="http://www.w3.org/2000/svg">
</g>
<g xmlns="http://www.w3.org/2000/svg">
</g>
<g xmlns="http://www.w3.org/2000/svg">
</g>
<g xmlns="http://www.w3.org/2000/svg">
</g>
</g></svg>
