<svg xmlns="http://www.w3.org/2000/svg" viewBox="0 0 1618.05 2167.79"><defs><style>.cls-1{fill:#999;stroke:#999;}.cls-1,.cls-2,.cls-3{stroke-miterlimit:10;}.cls-2{fill:#29abe2;stroke:#29abe2;}.cls-3{stroke:#000;}</style></defs><g id="Layer_2" data-name="Layer 2"><g id="Layer_1-2" data-name="Layer 1"><path class="cls-1" d="M512.68,1412.25a108.25,108.25,0,0,1-3.6,152.57L84.66,1972.29c-26.37,25.31-70.23,6.91-70.64-29.64Q7.26,1348.07.5,753.48L829.55,1.13V289.65l-631.83,588,7.26,678,152.08-148.12a108.26,108.26,0,0,1,154.11,3.07Z"/><path class="cls-2" d="M1164.66,789a107.2,107.2,0,0,1,3.26-150.83Q1354.25,458,1540.59,277.75c28.81-27.87,77-7.45,77,32.63v1129.8l-788,726.47V1911.29l599-555.24V682.1q-54.39,54.92-108.8,109.81a107.21,107.21,0,0,1-154-1.69Z"/><circle class="cls-3" cx="834.05" cy="1101.13" r="380.5"/></g></g></svg>