<?xml version="1.0" encoding="UTF-8"?>
<svg xmlns="http://www.w3.org/2000/svg" xmlns:xlink="http://www.w3.org/1999/xlink" viewBox="0 0 50 50" width="50px" height="50px">
<g id="surface71686572">
<path style=" stroke:none;fill-rule:nonzero;fill:rgb(100%,100%,100%);fill-opacity:1;" d="M 25.144531 49.394531 C 11.753906 49.394531 0.894531 38.539062 0.894531 25.144531 C 0.894531 11.753906 11.753906 0.894531 25.144531 0.894531 C 38.539062 0.894531 49.394531 11.753906 49.394531 25.144531 C 49.394531 38.539062 38.539062 49.394531 25.144531 49.394531 Z M 25.144531 49.394531 "/>
<path style=" stroke:none;fill-rule:nonzero;fill:rgb(90.196079%,49.411765%,13.333334%);fill-opacity:1;" d="M 37.976562 10.488281 C 37.855469 10.355469 37.683594 10.28125 37.503906 10.28125 L 12.496094 10.28125 C 12.316406 10.28125 12.144531 10.355469 12.023438 10.488281 C 11.902344 10.621094 11.84375 10.796875 11.859375 10.976562 L 14.113281 36.210938 C 14.136719 36.472656 14.320312 36.695312 14.574219 36.769531 L 24.820312 39.695312 C 24.878906 39.710938 24.9375 39.71875 24.996094 39.71875 C 25.054688 39.71875 25.113281 39.710938 25.171875 39.695312 L 35.425781 36.769531 C 35.679688 36.695312 35.867188 36.472656 35.890625 36.210938 L 38.140625 10.976562 C 38.15625 10.796875 38.097656 10.621094 37.976562 10.488281 Z M 16.679688 27.5625 L 21.160156 28.804688 L 21.160156 16.039062 L 23.71875 16.039062 L 23.71875 32.679688 L 16.679688 30.726562 Z M 33.355469 23.078125 L 32.679688 30.921875 L 26.28125 32.679688 L 26.28125 29.734375 L 30.601562 28.546875 L 30.761719 26.148438 L 26.28125 26.921875 L 26.28125 16.039062 L 33.960938 16.039062 L 33.738281 18.601562 L 28.839844 18.601562 L 28.839844 23.71875 Z M 33.355469 23.078125 "/>
</g>
</svg>
