<?xml version="1.0" encoding="UTF-8"?>
<svg xmlns="http://www.w3.org/2000/svg" xmlns:xlink="http://www.w3.org/1999/xlink" viewBox="0 0 48 48" width="48px" height="48px">
<g id="surface71669144">
<path style=" stroke:none;fill-rule:nonzero;fill:rgb(100%,100%,100%);fill-opacity:1;" d="M 24.140625 47.417969 C 11.28125 47.417969 0.859375 36.996094 0.859375 24.140625 C 0.859375 11.28125 11.28125 0.859375 24.140625 0.859375 C 36.996094 0.859375 47.417969 11.28125 47.417969 24.140625 C 47.417969 36.996094 36.996094 47.417969 24.140625 47.417969 Z M 24.140625 47.417969 "/>
<path style=" stroke:none;fill-rule:nonzero;fill:rgb(90.196079%,29.019609%,9.803922%);fill-opacity:1;" d="M 25.699219 19.101562 L 20.101562 19.101562 C 17.394531 19.101562 15.199219 16.90625 15.199219 14.199219 C 15.199219 11.492188 17.394531 9.300781 20.101562 9.300781 L 25.699219 9.300781 Z M 25.699219 19.101562 "/>
<path style=" stroke:none;fill-rule:nonzero;fill:rgb(48.627451%,30.19608%,100%);fill-opacity:1;" d="M 25 28.898438 L 20.101562 28.898438 C 17.394531 28.898438 15.199219 26.707031 15.199219 24 C 15.199219 21.292969 17.394531 19.101562 20.101562 19.101562 L 25 19.101562 Z M 25 28.898438 "/>
<path style=" stroke:none;fill-rule:nonzero;fill:rgb(40.000001%,73.333335%,41.568628%);fill-opacity:1;" d="M 20.101562 38.699219 C 17.394531 38.699219 15.199219 36.507812 15.199219 33.800781 C 15.199219 31.09375 17.394531 28.898438 20.101562 28.898438 L 25 28.898438 L 25 33.800781 C 25 36.507812 22.804688 38.699219 20.101562 38.699219 Z M 20.101562 38.699219 "/>
<path style=" stroke:none;fill-rule:nonzero;fill:rgb(100%,43.921569%,26.274511%);fill-opacity:1;" d="M 29.898438 19.101562 L 25 19.101562 L 25 9.300781 L 29.898438 9.300781 C 32.605469 9.300781 34.800781 11.492188 34.800781 14.199219 C 34.800781 16.90625 32.605469 19.101562 29.898438 19.101562 Z M 29.898438 19.101562 "/>
<path style=" stroke:none;fill-rule:nonzero;fill:rgb(16.078432%,71.372551%,96.470588%);fill-opacity:1;" d="M 34.800781 24 C 34.800781 26.707031 32.605469 28.898438 29.898438 28.898438 C 27.195312 28.898438 25 26.707031 25 24 C 25 21.292969 27.195312 19.101562 29.898438 19.101562 C 32.605469 19.101562 34.800781 21.292969 34.800781 24 Z M 34.800781 24 "/>
</g>
</svg>
