<?xml version="1.0" encoding="UTF-8"?>
<svg xmlns="http://www.w3.org/2000/svg" xmlns:xlink="http://www.w3.org/1999/xlink" viewBox="0 0 32 32" width="32px" height="32px">
<g id="surface69309463">
<path style=" stroke:none;fill-rule:nonzero;fill:rgb(100%,100%,100%);fill-opacity:1;" d="M 16.09375 32.09375 C 7.257812 32.09375 0.09375 24.929688 0.09375 16.09375 C 0.09375 7.257812 7.257812 0.09375 16.09375 0.09375 C 24.929688 0.09375 32.09375 7.257812 32.09375 16.09375 C 32.09375 24.929688 24.929688 32.09375 16.09375 32.09375 Z M 16.09375 32.09375 "/>
<path style=" stroke:none;fill-rule:nonzero;fill:rgb(18.039216%,80.000001%,44.313726%);fill-opacity:1;" d="M 15.996094 6.511719 C 15.730469 6.511719 15.460938 6.574219 15.234375 6.707031 L 8 10.882812 C 7.53125 11.152344 7.238281 11.664062 7.238281 12.203125 L 7.238281 19.78125 C 7.238281 20.328125 7.53125 20.832031 8 21.101562 L 9.898438 22.199219 C 10.816406 22.652344 11.144531 22.648438 11.5625 22.648438 C 12.925781 22.648438 13.707031 21.824219 13.707031 20.394531 L 13.707031 12.578125 C 13.707031 12.460938 13.613281 12.363281 13.496094 12.363281 L 12.582031 12.363281 C 12.460938 12.363281 12.371094 12.460938 12.371094 12.578125 L 12.371094 20.386719 C 12.371094 21.03125 11.707031 21.65625 10.636719 21.125 L 8.648438 19.976562 C 8.574219 19.941406 8.53125 19.863281 8.53125 19.78125 L 8.53125 12.210938 C 8.53125 12.125 8.574219 12.050781 8.648438 12.007812 L 15.882812 7.832031 C 15.949219 7.789062 16.035156 7.789062 16.109375 7.832031 L 23.34375 12.007812 C 23.417969 12.050781 23.460938 12.125 23.460938 12.203125 L 23.460938 19.78125 C 23.460938 19.863281 23.417969 19.941406 23.351562 19.976562 L 16.109375 24.160156 C 16.042969 24.199219 15.949219 24.199219 15.882812 24.160156 L 14.019531 23.058594 C 13.96875 23.023438 13.898438 23.015625 13.847656 23.042969 C 13.328125 23.335938 13.234375 23.375 12.753906 23.539062 C 12.636719 23.578125 12.453125 23.648438 12.816406 23.855469 L 15.234375 25.285156 C 15.464844 25.417969 15.730469 25.488281 15.992188 25.488281 C 16.261719 25.488281 16.523438 25.417969 16.757812 25.285156 L 24 21.101562 C 24.46875 20.832031 24.761719 20.328125 24.761719 19.78125 L 24.761719 12.210938 C 24.761719 11.664062 24.46875 11.160156 24 10.890625 L 16.757812 6.707031 C 16.527344 6.574219 16.261719 6.511719 15.996094 6.511719 Z M 17.941406 12.355469 C 15.875 12.355469 14.644531 13.230469 14.644531 14.691406 C 14.644531 16.273438 15.867188 16.710938 17.851562 16.910156 C 20.226562 17.140625 20.410156 17.492188 20.410156 17.960938 C 20.410156 18.761719 19.761719 19.105469 18.234375 19.105469 C 16.3125 19.105469 15.890625 18.625 15.75 17.675781 C 15.738281 17.574219 15.648438 17.5 15.546875 17.5 L 14.605469 17.5 C 14.488281 17.5 14.402344 17.597656 14.402344 17.707031 C 14.402344 18.925781 15.066406 20.375 18.234375 20.375 C 20.527344 20.375 21.839844 19.472656 21.839844 17.894531 C 21.839844 16.332031 20.78125 15.914062 18.5625 15.617188 C 16.304688 15.324219 16.078125 15.171875 16.078125 14.644531 C 16.078125 14.207031 16.277344 13.632812 17.941406 13.632812 C 19.421875 13.632812 19.976562 13.953125 20.203125 14.953125 C 20.226562 15.046875 20.304688 15.121094 20.410156 15.121094 L 21.351562 15.121094 C 21.410156 15.121094 21.460938 15.089844 21.503906 15.046875 C 21.539062 15.011719 21.5625 14.953125 21.554688 14.886719 C 21.410156 13.164062 20.261719 12.355469 17.941406 12.355469 Z M 17.941406 12.355469 "/>
</g>
</svg>
