<?xml version="1.0" encoding="UTF-8"?>
<svg xmlns="http://www.w3.org/2000/svg" xmlns:xlink="http://www.w3.org/1999/xlink" viewBox="0 0 48 48" width="48px" height="48px">
<g id="surface69294521">
<path style=" stroke:none;fill-rule:nonzero;fill:rgb(80.000001%,80.000001%,80.000001%);fill-opacity:1;" d="M 24.140625 47.417969 C 11.28125 47.417969 0.859375 36.996094 0.859375 24.140625 C 0.859375 11.28125 11.28125 0.859375 24.140625 0.859375 C 36.996094 0.859375 47.417969 11.28125 47.417969 24.140625 C 47.417969 36.996094 36.996094 47.417969 24.140625 47.417969 Z M 24.140625 47.417969 "/>
<path style=" stroke:none;fill-rule:nonzero;fill:rgb(40.392157%,22.745098%,71.764708%);fill-opacity:1;" d="M 38.039062 34.140625 C 38.039062 36.292969 36.292969 38.039062 34.140625 38.039062 L 13.859375 38.039062 C 11.707031 38.039062 9.960938 36.292969 9.960938 34.140625 L 9.960938 13.859375 C 9.960938 11.707031 11.707031 9.960938 13.859375 9.960938 L 34.140625 9.960938 C 36.292969 9.960938 38.039062 11.707031 38.039062 13.859375 Z M 38.039062 34.140625 "/>
<path style=" stroke:none;fill-rule:nonzero;fill:rgb(100%,100%,100%);fill-opacity:1;" d="M 31.042969 25.246094 C 30.535156 24.546875 29.804688 24.0625 28.859375 23.804688 C 28.859375 23.804688 29.65625 23.515625 30.371094 22.441406 C 30.800781 21.753906 31.019531 20.925781 31.019531 19.960938 C 31.019531 18.28125 30.410156 16.996094 29.195312 16.113281 C 27.976562 15.234375 26.605469 14.640625 24.273438 14.640625 L 16.980469 14.640625 L 16.980469 33.359375 L 25.117188 33.359375 C 27.324219 33.34375 28.984375 32.867188 30.113281 31.957031 C 31.238281 31.027344 31.800781 29.65625 31.800781 27.820312 C 31.800781 26.808594 31.550781 25.949219 31.042969 25.246094 Z M 21.660156 17.761719 C 21.660156 17.761719 24.914062 17.761719 24.976562 17.761719 C 26.160156 17.761719 27.121094 18.71875 27.121094 19.90625 C 27.121094 21.089844 26.160156 22.050781 24.976562 22.050781 C 24.914062 22.050781 21.660156 22.050781 21.660156 22.050781 Z M 25.558594 30.238281 L 21.660156 30.238281 L 21.660156 25.558594 L 25.558594 25.558594 C 26.855469 25.558594 27.898438 26.605469 27.898438 27.898438 C 27.898438 29.195312 26.855469 30.238281 25.558594 30.238281 Z M 25.558594 30.238281 "/>
</g>
</svg>
