<?xml version="1.0" encoding="UTF-8"?>
<svg xmlns="http://www.w3.org/2000/svg" xmlns:xlink="http://www.w3.org/1999/xlink" viewBox="0 0 50 50" width="50px" height="50px">
<g id="surface71671590">
<path style=" stroke:none;fill-rule:nonzero;fill:rgb(100%,100%,100%);fill-opacity:1;" d="M 25.144531 50.144531 C 11.339844 50.144531 0.144531 38.953125 0.144531 25.144531 C 0.144531 11.339844 11.339844 0.144531 25.144531 0.144531 C 38.953125 0.144531 50.144531 11.339844 50.144531 25.144531 C 50.144531 38.953125 38.953125 50.144531 25.144531 50.144531 Z M 25.144531 50.144531 "/>
<path style=" stroke:none;fill-rule:nonzero;fill:rgb(90.588236%,29.803923%,23.529412%);fill-opacity:1;" d="M 24.953125 9.363281 C 24.878906 9.363281 24.800781 9.375 24.730469 9.398438 L 10.496094 14.351562 C 10.195312 14.457031 10.007812 14.757812 10.046875 15.078125 L 12.296875 33.519531 C 12.320312 33.738281 12.449219 33.929688 12.644531 34.035156 L 24.644531 40.558594 C 24.746094 40.613281 24.859375 40.640625 24.96875 40.640625 C 25.082031 40.640625 25.195312 40.613281 25.296875 40.554688 L 37.359375 33.945312 C 37.550781 33.839844 37.679688 33.648438 37.707031 33.429688 L 39.953125 14.988281 C 39.992188 14.671875 39.804688 14.367188 39.496094 14.261719 L 25.171875 9.394531 C 25.101562 9.371094 25.027344 9.359375 24.953125 9.363281 Z M 25 12.761719 L 33.839844 31.800781 L 30.824219 31.800781 L 28.929688 27.726562 L 21.070312 27.726562 L 19.175781 31.800781 L 16.160156 31.800781 Z M 25 19.21875 L 22.335938 25 L 27.664062 25 Z M 25 19.21875 "/>
</g>
</svg>
