<svg xmlns="http://www.w3.org/2000/svg" viewBox="0 0 500 500"><defs><style>.cls-1{isolation:isolate;}.cls-2{fill:#fff;}.cls-3{fill:#dde3eb;}.cls-4{fill:#ffbdbb;}.cls-5{opacity:0.17;}.cls-5,.cls-8{mix-blend-mode:multiply;}.cls-6{fill:#42444f;}.cls-7{fill:#f98585;}.cls-15,.cls-8{fill:#6f7082;}.cls-8{opacity:0.2;}.cls-9{fill:#2f3335;}.cls-10{fill:#191a1c;}.cls-11{fill:#27282b;}.cls-12{fill:#52545c;}.cls-13{fill:#35363b;}.cls-14{fill:#ffd7d4;}.cls-16,.cls-17,.cls-18,.cls-19,.cls-21,.cls-22,.cls-23,.cls-24,.cls-25{fill:none;}.cls-16,.cls-21,.cls-23,.cls-24{stroke:#6f7082;}.cls-16,.cls-18,.cls-19,.cls-25{stroke-linecap:round;}.cls-16,.cls-17,.cls-21,.cls-22,.cls-23,.cls-24{stroke-miterlimit:10;}.cls-16{stroke-width:1.63px;stroke-dasharray:0 2.59;}.cls-17{stroke:#f98585;}.cls-17,.cls-19,.cls-25{stroke-width:2.16px;}.cls-18{stroke:#e6eaf0;stroke-width:0.54px;}.cls-18,.cls-19,.cls-25{stroke-linejoin:round;}.cls-19,.cls-22{stroke:#fff;}.cls-20{fill:#e6eaf0;}.cls-21{stroke-width:1.08px;}.cls-22{stroke-width:6.26px;}.cls-23,.cls-24{stroke-width:1.73px;}.cls-24{stroke-dasharray:2.16 1.73;}.cls-25{stroke:#35363b;}.cls-26{fill:#e0625b;}.cls-27{fill:#ffda58;}.cls-28{fill:#34909d;}.cls-29{fill:#ccd7e6;}.cls-30{fill:#e1e9f5;}.cls-31{fill:#55c0ed;}</style></defs><g class="cls-1"><g id="Background"><rect class="cls-2" width="500" height="500"/></g><g id="Objects"><path class="cls-3" d="M445.63,275.22c-14.3-16.43-33.22-28.11-52.32-38.6-17.91-9.84-38.65-22.28-40.26-42.65-2-25.38,26.75-41.81,36-65.51s-3.22-51.54-23.32-67.06-46-21.13-71.2-24.43c-36.05-4.72-75.82-4.67-104.89,17.17-26,19.52-38,52.65-43.14,84.74-.06.32-.11.64-.16,1-7.93,50.32-32.41,96.83-70.81,130.3A91.55,91.55,0,0,0,67,278.63C43.78,305,39.77,345.23,53,377.79s41.72,57.51,74.07,71.27,68.32,17.16,103.42,15.2a359.21,359.21,0,0,0,188.75-66.81c21.64-15.59,42.8-35.87,46.74-62.25C469.21,313.65,459.94,291.66,445.63,275.22Z"/><path class="cls-4" d="M461.21,278.17c-15.73-18.08-36.54-30.92-57.54-42.46-19.7-10.83-42.52-24.51-44.29-46.92-2.21-27.9,29.42-46,39.65-72S395.48,60.05,373.38,43s-50.62-23.24-78.32-26.87C255.41,10.92,211.66,11,179.69,35,151.1,56.46,137.92,92.9,132.23,128.2c0,.35-.11.71-.16,1.06-8.73,55.35-35.65,106.5-77.89,143.32a98.85,98.85,0,0,0-9.42,9.34c-25.55,29-29.95,73.25-15.4,109.07s45.89,63.25,81.47,78.38S186,488.25,224.59,486.09A395.24,395.24,0,0,0,432.2,412.61c23.8-17.15,47.08-39.46,51.41-68.48C487.15,320.43,477,296.24,461.21,278.17Z"/><g id="phone" class="cls-5"><rect class="cls-6" x="176.09" y="121.32" width="169.62" height="272.17" rx="25.21"/></g><path class="cls-7" d="M184,147.93H61.83c-35.67,0-38.56-53.05,4.9-53.05,0-50.12,80.25-54.55,80.25-2.24,18.37,0,37.58-2.13,42,13.44,1.76,6.14.8,10.76-4.37,18.44C204.94,119.62,212.73,147.93,184,147.93Z"/><g id="phone-2" data-name="phone"><path class="cls-8" d="M184,147.93h-26.3V124.39a21,21,0,0,1,21-21H189c1.76,6.13.8,13.43-4.37,21.11C204.94,119.62,212.73,147.93,184,147.93Z"/></g><path class="cls-2" d="M128.08,263h40.75a0,0,0,0,1,0,0V367.62a0,0,0,0,1,0,0H128.08a9.67,9.67,0,0,1-9.67-9.67V272.71A9.67,9.67,0,0,1,128.08,263Z"/><g id="phone-3" data-name="phone"><rect class="cls-9" x="163.41" y="108.09" width="171.78" height="274.33" rx="17.3"/><path class="cls-9" d="M317.88,109.17a16.22,16.22,0,0,1,16.23,16.23V365.13a16.22,16.22,0,0,1-16.23,16.22H180.71a16.22,16.22,0,0,1-16.22-16.22V125.4a16.22,16.22,0,0,1,16.22-16.23H317.88m0-2.16H180.71a18.41,18.41,0,0,0-18.38,18.39V365.13a18.41,18.41,0,0,0,18.38,18.38H317.88a18.41,18.41,0,0,0,18.39-18.38V125.4A18.41,18.41,0,0,0,317.88,107Z"/></g><path class="cls-10" d="M321.58,334.61v35.94H203.07V334.61a7.2,7.2,0,0,1,7.2-7.2H314.39A7.19,7.19,0,0,1,321.58,334.61Z"/><path class="cls-11" d="M316,329.06V365H197.53V329.06a7.19,7.19,0,0,1,7.19-7.2H308.84A7.2,7.2,0,0,1,316,329.06Z"/><path class="cls-12" d="M309.3,322.33v35.94H190.79V322.33a7.2,7.2,0,0,1,7.19-7.21H302.11A7.2,7.2,0,0,1,309.3,322.33Z"/><path class="cls-13" d="M334.11,358.27v6.86a16.22,16.22,0,0,1-16.23,16.22H180.71a16.22,16.22,0,0,1-16.22-16.22v-6.86Z"/><circle class="cls-2" cx="249.29" cy="368.87" r="9.06"/><path class="cls-13" d="M291.73,109.17A12.87,12.87,0,0,1,279,120.28H219.58a12.9,12.9,0,0,1-12.73-11.11Z"/><g id="Artwork_2" data-name="Artwork 2"><rect class="cls-14" x="365.87" y="178.59" width="35.97" height="49.69"/><polygon class="cls-6" points="375.26 178.59 365.87 178.59 365.87 187.99 375.26 178.59"/><rect class="cls-15" x="373.43" y="184.16" width="20.84" height="1.16"/><rect class="cls-15" x="373.43" y="187.5" width="20.84" height="1.16"/><rect class="cls-15" x="373.43" y="190.84" width="20.84" height="1.16"/><rect class="cls-15" x="373.43" y="194.18" width="20.84" height="1.16"/><rect class="cls-15" x="373.43" y="197.52" width="20.84" height="1.16"/><rect class="cls-15" x="373.43" y="200.87" width="20.84" height="1.16"/><rect class="cls-15" x="373.43" y="204.21" width="20.84" height="1.16"/><rect class="cls-15" x="373.43" y="207.55" width="20.84" height="1.16"/><rect class="cls-15" x="373.43" y="210.89" width="20.84" height="1.16"/><rect class="cls-15" x="373.43" y="214.23" width="20.84" height="1.16"/><rect class="cls-15" x="373.43" y="217.58" width="20.84" height="1.16"/><rect class="cls-15" x="373.43" y="220.92" width="12.6" height="1.16"/></g><polyline class="cls-16" points="365.76 201.84 343.88 201.84 330.05 215.67"/><path class="cls-15" d="M253.51,410.48v25.57a4.68,4.68,0,0,1-4.67,4.68h-57a4.68,4.68,0,0,1-4.67-4.68V410.48a4.67,4.67,0,0,1,4.67-4.68h57A4.68,4.68,0,0,1,253.51,410.48Z"/><path class="cls-6" d="M253.51,410.48v9.35H253a10.71,10.71,0,0,1-10.7-10.71,10.46,10.46,0,0,1,.53-3.33h6A4.68,4.68,0,0,1,253.51,410.48Z"/><circle class="cls-2" cx="254.03" cy="407.32" r="10.71" transform="translate(-213.62 298.93) rotate(-45)"/><polyline class="cls-17" points="248 409.46 250.77 412.24 260.03 402.98"/><rect class="cls-2" x="208.34" y="415.21" width="23.58" height="16.12" rx="1.73"/><line class="cls-18" x1="209.72" y1="430.32" x2="230.55" y2="416.5"/><line class="cls-18" x1="230.55" y1="430.32" x2="209.72" y2="416.5"/><polyline class="cls-19" points="238.5 420.15 241.14 422.8 238.5 425.44"/><polyline class="cls-19" points="201.77 425.62 199.12 422.97 201.77 420.32"/><rect class="cls-20" x="346.85" y="378.11" width="46.7" height="31.71" rx="2.24"/><rect class="cls-2" x="345.98" y="377.17" width="46.7" height="31.71" rx="2.24"/><rect class="cls-20" x="354.42" y="384.38" width="10.65" height="19.48" rx="1.34"/><rect class="cls-6" x="369.77" y="385.64" width="13.35" height="1.97"/><rect class="cls-6" x="369.77" y="390.52" width="13.35" height="1.97"/><rect class="cls-6" x="369.77" y="395.39" width="13.35" height="1.97"/><rect class="cls-6" x="369.77" y="400.26" width="13.35" height="1.97"/><path class="cls-21" d="M411.91,377.75a3.25,3.25,0,1,1-3.24-3.24A3.24,3.24,0,0,1,411.91,377.75Z"/><path class="cls-22" d="M375.89,267.44a7.8,7.8,0,1,1-7.8-7.81A7.8,7.8,0,0,1,375.89,267.44Z"/><line class="cls-23" x1="289.19" y1="349.46" x2="289.19" y2="405.77"/><circle class="cls-24" cx="289.19" cy="408.95" r="9" transform="matrix(0.57, -0.82, 0.82, 0.57, -211.67, 412.64)"/><path class="cls-23" d="M292.23,409a3,3,0,1,1-3-3A3,3,0,0,1,292.23,409Z"/><path class="cls-15" d="M291.57,348.68a2.38,2.38,0,1,1-2.38-2.38A2.38,2.38,0,0,1,291.57,348.68Z"/><g id="pencil_edit" data-name="pencil edit"><path class="cls-20" d="M150.34,304.18h0a3.54,3.54,0,0,1,0,5l-15.89,15.9h-5v-5l15.89-15.89A3.55,3.55,0,0,1,150.34,304.18Z"/><path class="cls-7" d="M144.89,304.59l-1.33,1.34L129.47,320l5,5,15.43-15.43Z"/><polygon class="cls-6" points="129.42 325.1 132.27 325.1 129.42 322.25 129.42 325.1"/></g><polygon class="cls-20" points="146.86 355.69 134.12 355.69 130.58 339.02 150.4 339.02 146.86 355.69"/><path class="cls-15" d="M131.72,336.4h17.55a1.76,1.76,0,0,1,1.76,1.76v1.12a0,0,0,0,1,0,0H130a0,0,0,0,1,0,0v-1.12A1.76,1.76,0,0,1,131.72,336.4Z"/><path class="cls-15" d="M143.62,336.86h-1.08v-1.25a.45.45,0,0,0-.45-.45h-3.2a.45.45,0,0,0-.45.45v1.25h-1.08v-1.25a1.54,1.54,0,0,1,1.53-1.53h3.2a1.54,1.54,0,0,1,1.53,1.53Z"/><path class="cls-15" d="M140.57,352.18h0a.62.62,0,0,1-.62-.62V343a.62.62,0,0,1,.62-.62h0a.62.62,0,0,1,.62.62v8.54A.62.62,0,0,1,140.57,352.18Z"/><path class="cls-15" d="M145.22,352.18h0a.62.62,0,0,1-.62-.62V343a.62.62,0,0,1,.62-.62h0a.61.61,0,0,1,.61.62v8.54A.61.61,0,0,1,145.22,352.18Z"/><path class="cls-15" d="M135.92,352.18h0a.62.62,0,0,1-.61-.62V343a.62.62,0,0,1,.61-.62h0a.62.62,0,0,1,.62.62v8.54A.62.62,0,0,1,135.92,352.18Z"/><g id="gear"><path class="cls-15" d="M152.17,284.71a11.93,11.93,0,0,0,0-4.35h-1.9a.37.37,0,0,1-.18-.7l1.64-1a11.66,11.66,0,0,0-2.19-3.77l-1.72,1a.37.37,0,0,1-.51-.51l1-1.73a11.63,11.63,0,0,0-3.78-2.16l-.87,1.53a.37.37,0,0,1-.7-.18v-1.76a11.42,11.42,0,0,0-4.36,0V273a.38.38,0,0,1-.7.19l-.94-1.64a11.35,11.35,0,0,0-3.77,2.18l1,1.72a.38.38,0,0,1-.52.52l-1.73-1a11.6,11.6,0,0,0-2.15,3.78l1.53.87a.38.38,0,0,1-.19.71h-1.76a11.93,11.93,0,0,0,0,4.35h1.89a.37.37,0,0,1,.19.7l-1.64.95a11.77,11.77,0,0,0,2.18,3.76l1.73-1a.37.37,0,0,1,.51.51l-1,1.73a11.42,11.42,0,0,0,3.78,2.15l.87-1.53a.38.38,0,0,1,.7.19v1.76a11.42,11.42,0,0,0,4.36,0v-1.89a.37.37,0,0,1,.7-.19l.94,1.64a11.63,11.63,0,0,0,3.77-2.18l-1-1.73a.37.37,0,0,1,.51-.51l1.74,1a11.6,11.6,0,0,0,2.15-3.78l-1.53-.87a.37.37,0,0,1,.19-.7Zm-11.07,3a5.2,5.2,0,1,1,4.85-4.85A5.2,5.2,0,0,1,141.1,287.72Z"/></g><g id="_0" data-name="0"><path class="cls-15" d="M115.11,379.87h-.87a.87.87,0,0,1-.88-.88v-.87a.92.92,0,0,0-.71-.91.89.89,0,0,0-1.06.87V379a.87.87,0,0,1-.88.88h-.87a.93.93,0,0,0-.91.7.9.9,0,0,0,.87,1.07h.91a.87.87,0,0,1,.88.87v.88a.9.9,0,0,0,.71.9.88.88,0,0,0,1.06-.86v-.92a.87.87,0,0,1,.88-.87h.91a.9.9,0,0,0,.87-1.07A.93.93,0,0,0,115.11,379.87Z"/></g><g id="_0-2" data-name="0"><path class="cls-6" d="M85.48,303.89H84.35a1.12,1.12,0,0,1-1.12-1.13v-1.12a1.17,1.17,0,0,0-.91-1.16A1.14,1.14,0,0,0,81,301.59v1.17a1.12,1.12,0,0,1-1.12,1.13H78.72a1.16,1.16,0,0,0-1.16.9,1.13,1.13,0,0,0,1.11,1.36h1.17A1.13,1.13,0,0,1,81,307.28v1.12a1.16,1.16,0,0,0,.91,1.16,1.13,1.13,0,0,0,1.36-1.11v-1.17a1.13,1.13,0,0,1,1.12-1.13h1.18a1.14,1.14,0,0,0,1.11-1.36A1.17,1.17,0,0,0,85.48,303.89Z"/></g><path class="cls-2" d="M120.43,244.41,107,257.81a2,2,0,0,1-2.76,0h0a2,2,0,0,1,0-2.76l13.41-13.4a2,2,0,0,1,2.76,0h0A2,2,0,0,1,120.43,244.41Z"/><path class="cls-2" d="M126.8,238l-1.55,1.56a2,2,0,0,1-2.76,0h0a2,2,0,0,1,0-2.77l1.55-1.55a2,2,0,0,1,2.76,0h0A2,2,0,0,1,126.8,238Z"/><path class="cls-2" d="M134.66,230.17l-.27.28a2,2,0,0,1-2.76,0h0a2,2,0,0,1,0-2.76l.27-.28a2,2,0,0,1,2.76,0h0A2,2,0,0,1,134.66,230.17Z"/><path class="cls-13" d="M107.84,150.09a5.23,5.23,0,1,1-5.23-5.23A5.23,5.23,0,0,1,107.84,150.09Z"/><path class="cls-13" d="M170.21,212.29a5.23,5.23,0,1,1-5.23-5.23A5.23,5.23,0,0,1,170.21,212.29Z"/><path class="cls-25" d="M164.79,212.29H122.34a19.68,19.68,0,0,1-19.68-19.68V150.09"/><rect class="cls-13" x="366.61" y="116" width="21.62" height="2.68"/><rect class="cls-13" x="390.16" y="116" width="16.65" height="2.68"/><rect class="cls-13" x="408.58" y="116" width="13.22" height="2.68"/><rect class="cls-13" x="377.28" y="122.2" width="44.52" height="2.68"/><rect class="cls-13" x="366.61" y="122.2" width="8.18" height="2.68"/><rect class="cls-13" x="391.15" y="128.39" width="21.06" height="2.68"/><rect class="cls-13" x="414.2" y="128.39" width="7.6" height="2.68"/><rect class="cls-13" x="366.61" y="128.39" width="22.62" height="2.68"/><rect class="cls-13" x="382.47" y="134.59" width="18.34" height="2.68"/><rect class="cls-13" x="366.61" y="134.59" width="13.8" height="2.68"/><rect class="cls-13" x="182.77" y="270.26" width="20.82" height="2.58"/><rect class="cls-13" x="205.44" y="270.26" width="16.02" height="2.58"/><rect class="cls-13" x="223.17" y="270.26" width="12.72" height="2.58"/><rect class="cls-13" x="193.04" y="276.22" width="42.86" height="2.58"/><rect class="cls-13" x="182.77" y="276.22" width="7.87" height="2.58"/><rect class="cls-13" x="206.39" y="282.19" width="20.27" height="2.58"/><rect class="cls-13" x="228.58" y="282.19" width="7.31" height="2.58"/><rect class="cls-13" x="182.77" y="282.19" width="21.78" height="2.58"/><rect class="cls-13" x="198.04" y="288.15" width="17.65" height="2.58"/><rect class="cls-13" x="182.77" y="288.15" width="13.28" height="2.58"/><rect class="cls-13" x="249.18" y="270.26" width="20.82" height="2.58"/><rect class="cls-13" x="271.84" y="270.26" width="16.02" height="2.58"/><rect class="cls-13" x="289.58" y="270.26" width="12.72" height="2.58"/><rect class="cls-13" x="259.45" y="276.22" width="42.86" height="2.58"/><rect class="cls-13" x="249.18" y="276.22" width="7.87" height="2.58"/><rect class="cls-13" x="272.8" y="282.19" width="20.27" height="2.58"/><rect class="cls-13" x="294.99" y="282.19" width="7.31" height="2.58"/><rect class="cls-13" x="249.18" y="282.19" width="21.78" height="2.58"/><rect class="cls-13" x="264.45" y="288.15" width="17.65" height="2.58"/><rect class="cls-13" x="249.18" y="288.15" width="13.28" height="2.58"/><g id="_0-3" data-name="0"><path class="cls-6" d="M367.23,163h-.87a.87.87,0,0,1-.87-.87v-.86a.9.9,0,0,0-.7-.9.88.88,0,0,0-1.05.86v.9a.87.87,0,0,1-.87.87H362a.9.9,0,0,0-.89.7.88.88,0,0,0,.85,1h.91a.87.87,0,0,1,.87.87v.87a.89.89,0,0,0,.7.89.87.87,0,0,0,1.05-.85v-.91a.87.87,0,0,1,.87-.87h.9a.88.88,0,0,0,.86-1A.9.9,0,0,0,367.23,163Z"/></g><path class="cls-20" d="M435,145.52a3.09,3.09,0,1,1-3.09-3.09A3.1,3.1,0,0,1,435,145.52Z"/><path class="cls-15" d="M408,96.6a2,2,0,1,1-2-2A2,2,0,0,1,408,96.6Z"/><line class="cls-21" x1="308.57" y1="81.88" x2="308.57" y2="109.36"/><circle class="cls-15" cx="308.57" cy="109.33" r="3.02"/><circle class="cls-15" cx="308.57" cy="81.96" r="3.02"/><g id="_0-4" data-name="0"><path class="cls-15" d="M127.58,414.93l13.78-13.78a2,2,0,0,1,2.84,0h0a2,2,0,0,1,0,2.84l-13.78,13.78a2,2,0,0,1-2.84,0h0A2,2,0,0,1,127.58,414.93Z"/><path class="cls-15" d="M121,421.48l1.6-1.6a2,2,0,0,1,2.84,0h0a2,2,0,0,1,0,2.84l-1.6,1.6a2,2,0,0,1-2.84,0h0A2,2,0,0,1,121,421.48Z"/><path class="cls-15" d="M113,429.56l.28-.28a2,2,0,0,1,2.84,0h0a2,2,0,0,1,0,2.83l-.28.29a2,2,0,0,1-2.84,0h0A2,2,0,0,1,113,429.56Z"/></g><g id="_0-5" data-name="0"><path class="cls-2" d="M176.3,398.58h-1a1,1,0,0,1-1-1v-1a1,1,0,0,0-.77-1,1,1,0,0,0-1.15.94v1a1,1,0,0,1-1,1h-1a1,1,0,0,0-1,.76,1,1,0,0,0,.94,1.16h1a1,1,0,0,1,1,1v1a1,1,0,0,0,.76,1,1,1,0,0,0,1.16-.94v-1a1,1,0,0,1,1-1h1a1,1,0,0,0,.94-1.16A1,1,0,0,0,176.3,398.58Z"/></g><path class="cls-7" d="M283.82,303.58h15.57a2.88,2.88,0,0,0,2.87-2.87h0a2.88,2.88,0,0,0-2.87-2.87H283.82a2.88,2.88,0,0,0-2.87,2.87h0A2.88,2.88,0,0,0,283.82,303.58Z"/><rect class="cls-2" x="286.03" y="300.12" width="11.15" height="1.18"/><path class="cls-7" d="M217.46,303.58H233a2.88,2.88,0,0,0,2.87-2.87h0a2.88,2.88,0,0,0-2.87-2.87H217.46a2.88,2.88,0,0,0-2.87,2.87h0A2.88,2.88,0,0,0,217.46,303.58Z"/><rect class="cls-2" x="219.67" y="300.12" width="11.15" height="1.18"/><path class="cls-2" d="M252.4,116.11H232.63a1.63,1.63,0,0,1-1.63-1.63h0a1.64,1.64,0,0,1,1.63-1.64H252.4a1.64,1.64,0,0,1,1.63,1.64h0A1.63,1.63,0,0,1,252.4,116.11Z"/><path class="cls-2" d="M265,116.11h-4.44a1.64,1.64,0,0,1-1.64-1.63h0a1.65,1.65,0,0,1,1.64-1.64H265a1.65,1.65,0,0,1,1.64,1.64h0A1.64,1.64,0,0,1,265,116.11Z"/><path class="cls-26" d="M287.42,131.39a4.54,4.54,0,1,1-4.54-4.54A4.54,4.54,0,0,1,287.42,131.39Z"/><path class="cls-27" d="M299.91,131.39a4.54,4.54,0,1,1-4.54-4.54A4.54,4.54,0,0,1,299.91,131.39Z"/><path class="cls-28" d="M312.39,131.39a4.54,4.54,0,1,1-4.54-4.54A4.54,4.54,0,0,1,312.39,131.39Z"/><rect class="cls-13" x="174.32" y="154.93" width="148.67" height="28.14"/><rect class="cls-4" x="180.04" y="150.21" width="24.38" height="24.38" rx="4.9"/><rect class="cls-13" x="190.78" y="192.69" width="118.52" height="64.06" rx="7.2"/><circle class="cls-20" cx="227.72" cy="248.86" r="2.66"/><circle class="cls-7" cx="238.88" cy="248.86" r="2.66"/><circle class="cls-20" cx="250.04" cy="248.86" r="2.66"/><path class="cls-20" d="M263.87,248.86a2.66,2.66,0,1,1-2.66-2.67A2.66,2.66,0,0,1,263.87,248.86Z"/><path class="cls-20" d="M275,248.86a2.66,2.66,0,1,1-2.66-2.67A2.66,2.66,0,0,1,275,248.86Z"/><path class="cls-15" d="M175.09,223.82l5.92,5.92a.55.55,0,0,0,.93-.38V217.52a.55.55,0,0,0-.93-.38l-5.92,5.91A.55.55,0,0,0,175.09,223.82Z"/><path class="cls-15" d="M325,223.82l-5.91,5.92a.55.55,0,0,1-.93-.38V217.52a.55.55,0,0,1,.93-.38l5.91,5.91A.53.53,0,0,1,325,223.82Z"/><circle class="cls-2" cx="203.8" cy="60.56" r="6.82"/><g id="_0-6" data-name="0"><path class="cls-2" d="M35.93,376.36h0a6.62,6.62,0,0,0,9.37,0l16.89-16.89a2.49,2.49,0,0,1,3.53,0h0a2.49,2.49,0,0,1,0,3.53l-2.49,2.49a4.33,4.33,0,0,0,0,6.11l.17.16a4.3,4.3,0,0,0,6.1,0l32.89-32.89a4.3,4.3,0,0,0,0-6.1h0a4.32,4.32,0,0,0-6.11,0L73.86,355.19a2.5,2.5,0,0,1-3.54,0l-.16-.16a2.49,2.49,0,0,1,0-3.53L79.68,342a6.61,6.61,0,0,0,0-9.36h0a6.61,6.61,0,0,0-9.36,0L35.93,367A6.62,6.62,0,0,0,35.93,376.36Z"/></g><g id="folder_file" data-name="folder file"><rect class="cls-29" x="372.48" y="296.68" width="54.84" height="22.71" transform="translate(739.44 681.55) rotate(-169.88)"/><rect class="cls-30" x="372.01" y="298.53" width="54.84" height="22.71" transform="translate(798.85 619.76) rotate(180)"/><rect class="cls-2" x="373.37" y="304.03" width="51.26" height="19.45" transform="translate(821.42 595.19) rotate(175.49)"/><path class="cls-6" d="M385.78,303.31l5.28,5.29a4.12,4.12,0,0,0,2.89,1.19h35a4.09,4.09,0,0,1,4.09,4.09v30.35a4.09,4.09,0,0,1-4.09,4.08H368.4a4.09,4.09,0,0,1-4.09-4.08v-38a4.09,4.09,0,0,1,4.09-4.09h14.49A4.13,4.13,0,0,1,385.78,303.31Z"/></g><rect class="cls-2" x="413.49" y="340.27" width="9.32" height="1.72"/><rect class="cls-2" x="413.49" y="337.16" width="12.65" height="1.72"/><path class="cls-31" d="M429.69,315.33a2.1,2.1,0,1,1-2.1-2.1A2.11,2.11,0,0,1,429.69,315.33Z"/></g></g></svg>