<svg xmlns="http://www.w3.org/2000/svg" viewBox="0 0 770.99 1063.58"><defs><style>.cls-1{opacity:0.7;}.cls-2{fill:#20d0be;}.cls-3{fill:none;stroke:#20d0be;stroke-width:0;}.cls-4{fill:#14a1c6;stroke:#14a1c6;stroke-linecap:round;stroke-linejoin:round;stroke-width:4px;}</style></defs><g id="Layer_2" data-name="Layer 2"><g id="Layer_1-2" data-name="Layer 1"><g class="cls-1"><path class="cls-2" d="M363.51,493.07l-2.17-1.22c-1.43-.81-3.58-2-6.37-3.68-5.59-3.29-13.79-8.31-24-15.55a284.19,284.19,0,0,1-35.18-29.44,233.24,233.24,0,0,1-37.89-48.57l-3.21-6.73a214.12,214.12,0,0,1-8-20.42,199.08,199.08,0,0,1-8-34.68,195.46,195.46,0,0,1-.29-48.35A214.52,214.52,0,0,1,243.7,256a238.21,238.21,0,0,1,10-30.46,249.78,249.78,0,0,1,15.25-31.49c1.5-2.63,3.07-5.22,4.72-7.86l1.27-2,1.27-1.91,2.53-3.87q1.35-1.89,2.7-3.81l1.35-1.92,1.43-1.88,2.87-3.79,3-3.74c16.29-19.9,37.39-38.44,62.83-54.07A328.68,328.68,0,0,1,440.73,72,358.67,358.67,0,0,1,546.13,60.2a299.07,299.07,0,0,1,55.17,7.22,242.48,242.48,0,0,1,26.78,7.8,203.52,203.52,0,0,1,25.28,11c2,1,4,2.16,6,3.25s3.87,2.31,5.82,3.45,3.79,2.4,5.6,3.69l2.75,1.91.69.48.8.57,1.47,1.07a206.25,206.25,0,0,1,21.72,18.46,144,144,0,0,1,17.51,20.47,95.6,95.6,0,0,1,6.14,10.18,59.73,59.73,0,0,1,3.83,9.43l.33,1.09a6.79,6.79,0,0,1,.28,1.07c.14.7.31,1.4.48,2.08s.18,1.32.3,2a4.61,4.61,0,0,1,.1,1c0,.31.05.62.08.93a29.46,29.46,0,0,1-.29,7,44.76,44.76,0,0,1-6.49,16.14,72.76,72.76,0,0,1-14.77,16.87A71.23,71.23,0,0,1,686.33,219a49,49,0,0,1-9.31,2.71,31.24,31.24,0,0,1-7.48.46,17.64,17.64,0,0,1-5-1.2,34.83,34.83,0,0,1-6.79-3.71A110.67,110.67,0,0,1,647,208.86L643.8,206l-3.4-3.09L633,196.1c-5.16-4.8-10.8-10-17-15.36s-13-10.83-20.34-16.11c-1.87-1.31-3.66-2.66-5.62-3.93l-5.83-3.83c-4-2.45-8.06-4.94-12.35-7.19s-8.62-4.4-13-6.49c-2.24-1-4.5-1.92-6.76-2.87-1.13-.46-2.26-1-3.4-1.39l-3.46-1.26a206,206,0,0,0-28.16-8.11L510,128.2l-3.47-.63-3.13-.5c-4.47-.69-9.18-1.29-13.89-1.75a215,215,0,0,0-58.77,2.2,184.13,184.13,0,0,0-30.34,8.14,171.3,171.3,0,0,0-56.15,33.55,183.27,183.27,0,0,0-22.17,23.92,189.17,189.17,0,0,0-29.85,56.8,185.39,185.39,0,0,0-7.34,31.71,178.06,178.06,0,0,0-1.61,33.23,168.85,168.85,0,0,0,4.92,33.85c1.38,5.62,3.12,11.08,5,16.53S297.46,376,300,381.19a173.31,173.31,0,0,0,17.91,29.19A190.1,190.1,0,0,0,340.32,435a207.31,207.31,0,0,0,25.38,19.95q6.65,4.44,13.59,8.38c2.32,1.31,4.66,2.6,7,3.83,1.18.62,2.39,1.22,3.59,1.83l1.82.89,1.72.8,3.43,1.6,3.12,1.38,6.16,2.7c4.1,1.84,8.21,3.45,12.32,5.18,8.23,3.37,16.49,6.54,24.77,9.59,16.58,6.1,33.27,11.6,50.15,16.7,6.1,1.74,12.21,3.4,18.33,5l5.56,1.65c3.69,1.1,9.29,2.7,16.73,4.73l5.39,1.47,5.62,1.58c3.88,1.13,8.09,2.41,12.65,3.91a319.46,319.46,0,0,1,30.82,11.9,226.94,226.94,0,0,1,35.1,19.48c11.67,8,22.8,17.89,30.92,29.4,1.1,1.41,1.92,2.92,2.91,4.39a25.7,25.7,0,0,1,1.33,2.26c.43.75.86,1.52,1.29,2.28a79.48,79.48,0,0,1,4.36,10,89.25,89.25,0,0,1,3.3,11.41c.37,2.05.86,4.09,1.12,6.25.14,1.08.37,2.13.47,3.24s.22,2.22.34,3.33c1.61,17.94-.93,39.22-8.53,60.88L660,694.23c-.38,1.07-.82,2.4-1.45,3.92s-1.25,3.33-2.13,5.27-1.74,4.16-2.9,6.48c-.56,1.16-1.11,2.4-1.74,3.65s-1.31,2.53-2,3.87a182.07,182.07,0,0,1-10.5,17.33,160.36,160.36,0,0,1-15,18.73,162.11,162.11,0,0,1-20.2,18.21A181,181,0,0,1,578.36,788c-4.65,2.51-9.51,4.75-14.46,6.92-2.51,1-5,2.11-7.55,3l-3.83,1.42-3.88,1.29-1.94.65-2,.58-3.92,1.17-4,1-2,.51-2,.44a157.75,157.75,0,0,1-15.88,2.8,148.48,148.48,0,0,1-15.6,1A121,121,0,0,1,486.6,808a93.74,93.74,0,0,1-13.51-2.88,75.4,75.4,0,0,1-11.73-4.75c-.89-.47-1.72-1-2.6-1.48-.42-.25-.89-.48-1.29-.74l-1.18-.8-1.2-.77-1.07-.81-1.09-.79c-.34-.27-.64-.55-1-.82a37,37,0,0,1-6.58-7.09,49.61,49.61,0,0,1-5.14-9.57,131.35,131.35,0,0,1-4.34-12.51c-1.37-4.51-2.69-9.23-4.06-14s-2.8-9.44-4.32-14a192.38,192.38,0,0,0-9.89-24.33c-1.68-3.48-3.45-6.6-5-9.42S409.43,698,408,695.9l-.89-1.21c-.61-.79-1.44-2-2.68-3.58-2.44-3.12-6.07-7.78-11.28-13.41-10.32-11.31-26.72-26.58-50.71-41.62-1.47-1-3-1.86-4.59-2.8s-3.13-1.89-4.76-2.8c-3.27-1.8-6.58-3.71-10.1-5.46-6.94-3.64-14.42-7.07-22.38-10.31a247.39,247.39,0,0,0-25.39-8.81,229.36,229.36,0,0,0-28.32-6.38A207.3,207.3,0,0,0,183,599a184.88,184.88,0,0,0-33.78,8.49c-2.8,1-5.58,2.15-8.4,3.22s-5.54,2.42-8.34,3.63-5.51,2.69-8.25,4.11l-4.07,2.25c-1.36.74-2.73,1.48-4.06,2.32a204.89,204.89,0,0,0-31,22.62A216.48,216.48,0,0,0,57.8,675c-4.08,5.5-8.13,11.11-11.75,17.09-1.9,2.93-3.56,6-5.34,9.07-.86,1.54-1.65,3.12-2.48,4.68s-1.66,3.13-2.4,4.75l-2.32,4.83-2.13,4.93-1.07,2.47-1,2.52c-.64,1.69-1.34,3.36-1.94,5.07a211.36,211.36,0,0,0-6.29,21,198.56,198.56,0,0,0-3.77,21.87,176.49,176.49,0,0,0-.86,22.45,144.93,144.93,0,0,0,8.57,44.78,164.06,164.06,0,0,0,23,41.85,227.41,227.41,0,0,0,16.14,19.26q8.76,9.33,18.6,18.18c6.54,5.91,13.4,11.68,20.51,17.4,3.55,2.87,7.17,5.71,10.84,8.58s7.41,5.78,11.08,8.46,7.39,5.54,11.15,8.26l11.54,7.91c1,.66,1.92,1.35,2.91,2l3,1.88,6,3.78c2,1.26,4,2.57,6,3.79l6.17,3.59c4.13,2.39,8.22,4.89,12.5,7.09l6.38,3.43c2.13,1.13,4.24,2.34,6.44,3.37l13.12,6.49,13.46,6.1A560.51,560.51,0,0,0,280.46,1033c39.14,12.28,81,20.8,124.62,25.69A845.43,845.43,0,0,0,541,1062.4l-4.85.11-6,.15-8.29.13c-12.57.16-31.14.31-55.06-.67-6-.19-12.3-.6-18.93-.94s-13.6-.89-20.86-1.56c-14.52-1.28-30.28-2.92-47.13-5.45a655.1,655.1,0,0,1-112.46-26.51C226.85,1014,183.72,994.45,141.9,966L138,963.31,136,962c-.65-.46-1.28-.94-1.93-1.41l-7.75-5.68c-5.17-3.71-10.52-7.88-15.76-11.92-10.52-8.15-20.9-16.56-30.85-25.58a270.19,270.19,0,0,1-27.95-29.22,177.26,177.26,0,0,1-22.09-34.28A143.74,143.74,0,0,1,17,814.37a157.05,157.05,0,0,1-1-43.17c3.29-29.37,14.26-59.05,31.69-85.67a207.12,207.12,0,0,1,71-67,179.78,179.78,0,0,1,23.16-11.06l6.06-2.34,6.19-2.05c2.06-.72,4.16-1.29,6.27-1.86l3.17-.88c1.06-.3,2.12-.6,3.19-.82l6.45-1.44c2.16-.49,4.35-.79,6.53-1.2l3.29-.57c1.1-.16,2.2-.28,3.31-.43,2.21-.26,4.42-.59,6.65-.8a213.39,213.39,0,0,1,27.05-.79s2.48.81,7.46,2.25l9.27,3,6,2.12c1.07.36,2.17.78,3.3,1.23l3.52,1.36c2.43.89,4.95,2,7.64,3.13s5.48,2.41,8.43,3.75l2.23,1,2.26,1.12,4.68,2.3c1.59.79,3.18,1.68,4.83,2.54s3.33,1.73,5,2.71l5.17,2.93,5.29,3.19c1.82,1.06,3.6,2.26,5.44,3.43l2.78,1.78c.93.6,1.84,1.26,2.78,1.89a281,281,0,0,1,23.24,17.5,259.5,259.5,0,0,1,23.86,22.74c4,4.25,7.79,8.84,11.58,13.64s7.33,10,10.74,15.38a162.36,162.36,0,0,1,16.75,36.78c2.2,6.83,4.05,14.06,5.93,21.65s3.77,15.59,6.55,23.86a98.79,98.79,0,0,0,5,12.44A71.77,71.77,0,0,0,417,810a68.14,68.14,0,0,0,9.64,10.6c.45.4.88.82,1.34,1.21L429.4,823c.94.75,1.86,1.53,2.83,2.24,1.95,1.37,3.87,2.82,5.95,4a99.16,99.16,0,0,0,26.59,11.47A121.54,121.54,0,0,0,494,844.86c20,.49,40.42-3.11,60.32-9.92a208.39,208.39,0,0,0,57-30.18s-.33.44-1.12,1.36c-.39.46-.89,1-1.53,1.74s-1.43,1.48-2.37,2.41-2,2-3.28,3.16-2.75,2.4-4.4,3.8a152.53,152.53,0,0,1-12.73,9.46,172.64,172.64,0,0,1-19.27,11.09A183.19,183.19,0,0,1,539.1,848.7a178.48,178.48,0,0,1-17.49,4.39,162.86,162.86,0,0,1-20.31,2.63c-.91.06-1.82.15-2.74.18l-2.8.08c-1.88,0-3.78.15-5.73.06l-5.91-.16-6.1-.48A123.93,123.93,0,0,1,451.93,850a107.63,107.63,0,0,1-27.51-13.49,87,87,0,0,1-13.33-11.26,88,88,0,0,1-11.47-14.8,107,107,0,0,1-8.31-16.71c-2.25-5.63-4.06-11.19-5.69-16.56-3.26-10.75-5.92-20.78-9.38-30.13a138,138,0,0,0-12.89-26.7,150.77,150.77,0,0,0-19.77-24.9c-2-2-4-4-6.11-6s-4.3-3.92-6.51-5.87c-4.52-3.83-9.21-7.64-14.24-11.21A225.23,225.23,0,0,0,284,652.74c-23.52-11.45-50.47-19.43-78.67-20.07a148.87,148.87,0,0,0-21.26,1,144.35,144.35,0,0,0-21.36,4l-5.34,1.47c-1.76.59-3.52,1.18-5.3,1.76s-3.52,1.29-5.28,2l-2.65,1L141.56,645a149.72,149.72,0,0,0-20.65,10.73,175.71,175.71,0,0,0-37.74,31.53,182.06,182.06,0,0,0-29.11,43.53,159.65,159.65,0,0,0-14.89,52A131.62,131.62,0,0,0,39.29,810a118.32,118.32,0,0,0,2.27,13.49c.56,2.23,1.06,4.48,1.77,6.7s1.4,4.44,2.13,6.67l-.4-1.26c-.26-.87-.77-2.17-1.29-4-.26-.93-.57-2-.92-3.18s-.63-2.54-1-4-.7-3.14-1.09-4.94-.67-3.78-1-5.92c-.21-1.06-.29-2.19-.45-3.35s-.33-2.36-.41-3.63c-.16-2.52-.48-5.2-.49-8.13,0-.72,0-1.46-.07-2.21,0-.38,0-.76,0-1.14l0-1.16c0-1.56,0-3.17.07-4.82s.2-3.38.31-5.14c0-.44,0-.89.08-1.34l.15-1.35c.1-.91.2-1.83.29-2.77a156,156,0,0,1,5-24.92A167.6,167.6,0,0,1,55.5,724.2c.65-1.29,1.31-2.59,2-3.91s1.44-2.6,2.17-3.93c1.4-2.68,3.1-5.26,4.7-8,.85-1.33,1.74-2.65,2.62-4,.44-.68.89-1.35,1.33-2s.95-1.33,1.43-2c1-1.33,1.91-2.7,2.91-4.05l3.11-4a179,179,0,0,1,31.41-31.11,162.66,162.66,0,0,1,44.18-24.25A152.86,152.86,0,0,1,208.07,628c20.75.63,43.18,5.31,65.75,14.63,2.79,1.23,5.65,2.36,8.44,3.73l4.23,2,4.2,2.15,2.12,1.08,2.08,1.16,4.2,2.32,4.15,2.49,2.08,1.24,2.05,1.32,4.13,2.66,4.07,2.81c1.37.92,2.7,1.91,4,2.9s2.71,1.95,4,3c5.31,4.08,10.44,8.5,15.44,13.15a161.61,161.61,0,0,1,26.28,31.52,130.53,130.53,0,0,1,9.61,18.65c1.42,3.28,2.66,6.74,3.9,10.27s2.33,7.23,3.4,11.11,2.13,7.86,3.23,12.1q.84,3.22,1.69,6.46c.61,2.25,1.19,4.46,1.88,6.8,1.35,4.64,2.84,9.46,4.83,14.48a106.32,106.32,0,0,0,7.34,15.17,88.07,88.07,0,0,0,23.66,26,113.08,113.08,0,0,0,29.93,15.65s-.53-.11-1.56-.37l-4.58-1.18c-.51-.14-1.05-.27-1.61-.44l-1.77-.58-4.08-1.39c-1.49-.46-3-1.2-4.72-1.88s-3.5-1.44-5.35-2.43-3.85-1.92-5.9-3.12l-3.13-1.9c-.53-.33-1.08-.66-1.62-1l-1.64-1.14-3.37-2.4L412,832.18c-1.18-.92-2.31-2-3.47-3.08s-2.35-2.19-3.47-3.42a91.83,91.83,0,0,1-12.82-17,133.06,133.06,0,0,1-9.46-20c-2.6-6.75-4.75-13.38-6.84-19.71s-4.12-12.36-6.39-18.11a137.83,137.83,0,0,0-17.51-32.22,185.23,185.23,0,0,0-28.85-30.49A243.2,243.2,0,0,0,284,660.94s1.05.45,3.09,1.4l3.8,1.88c1.53.72,3.27,1.66,5.25,2.74,1,.54,2.06,1.08,3.16,1.71l3.46,2,1.87,1.09,1.92,1.21,4.1,2.59a200.17,200.17,0,0,1,18.77,14A159.45,159.45,0,0,1,350,710.24a121,121,0,0,1,17.93,29,168.82,168.82,0,0,1,7.07,19.6c2.26,7.39,4.37,15.77,7.38,25.6,1.53,4.92,3.31,10.18,5.64,15.72a103.9,103.9,0,0,0,9,17,94.47,94.47,0,0,0,13.08,15.89A99.33,99.33,0,0,0,426,845.59a122.24,122.24,0,0,0,36.32,15.64,154.79,154.79,0,0,0,39,4.64,196.42,196.42,0,0,0,39.35-4.15,233.7,233.7,0,0,0,38.83-11.54,245.75,245.75,0,0,0,37.64-18.53c6.15-3.63,12.12-7.71,18.06-12,2.91-2.22,5.88-4.36,8.72-6.74,1.43-1.17,2.89-2.31,4.3-3.53l4.21-3.68a230.82,230.82,0,0,0,63.09-96.67,215.61,215.61,0,0,0,6.56-23.57c.93-4,1.63-8.1,2.35-12.19.29-2.06.59-4.12.88-6.19s.47-4.17.7-6.25a197.44,197.44,0,0,0,.84-25.46A158.69,158.69,0,0,0,716.49,584c-.87-2.08-1.72-4.16-2.62-6.23s-2-4.07-3-6.11-2.19-4-3.29-6c-.53-1-1.15-2-1.76-2.92l-1.82-2.88a152.3,152.3,0,0,0-16.89-21.34c-12.48-13.23-27.1-24.28-42.73-33.71A307.35,307.35,0,0,0,594.71,481c-8.69-3.28-17.53-6.29-26.54-9-4.5-1.35-9-2.62-13.59-3.81L541,464.66q-27-7.21-54.32-16.32c14.69,4.9,27.69,8.84,39,12.09,5.65,1.63,10.88,3.06,15.69,4.36l13.25,3.47c8.1,2.14,14.48,4.05,19.24,5.54s7.93,2.56,9.62,3.11c3.38,1.1.89.07-6.8-2.61-3.85-1.33-9-3-15.43-4.92-3.2-1-6.73-1.95-10.5-3s-7.76-2.12-12-3.35c-17.1-4.89-38.48-11.48-63-20.34-12.25-4.46-25.29-9.51-38.87-15.35-3.42-1.43-6.83-3-10.29-4.54l-5.21-2.37c-1.7-.82-3.45-1.6-5.13-2.46a160.7,160.7,0,0,1-20-12,137.56,137.56,0,0,1-34.93-34.86,111.21,111.21,0,0,1-18.58-49,124.08,124.08,0,0,1,6.19-55.61,127.7,127.7,0,0,1,31.23-49.65,111.54,111.54,0,0,1,24.22-17.94,116.89,116.89,0,0,1,28.61-11,142.92,142.92,0,0,1,31.06-4,172.77,172.77,0,0,1,31.77,2.32c1.36.21,2.67.46,4,.71l3.93.75,2,.38,1.94.48,3.87.95a150.35,150.35,0,0,1,15.22,4.85A145.79,145.79,0,0,1,555.13,209c4.52,2.91,8.84,6.17,13.14,9.47s8.44,6.88,12.54,10.56c8.25,7.27,16.25,15.05,24.77,22.59,4.26,3.78,8.7,7.47,13.35,11a117.11,117.11,0,0,0,15,9.56,80.93,80.93,0,0,0,16.9,6.68,76.33,76.33,0,0,0,18.06,2.61A97.13,97.13,0,0,0,704,275.57a125.69,125.69,0,0,0,30.87-16.3c18.75-13.54,34.2-31.55,43.36-52.87a101.94,101.94,0,0,0,5.43-16.54c.3-1.43.66-2.84.9-4.29l.69-4.33.42-4.38.2-2.18,0-2.2.07-4.38-.23-4.36c-.05-.73-.06-1.46-.14-2.18l-.26-2.15c-.2-1.44-.34-2.88-.58-4.3-.56-2.82-1-5.67-1.81-8.41-.37-1.37-.67-2.78-1.13-4.12s-.87-2.69-1.31-4a118,118,0,0,0-6.6-15.35c-1.21-2.49-2.61-4.82-3.94-7.2-.7-1.17-1.43-2.31-2.14-3.47s-1.43-2.3-2.19-3.4l-2.26-3.33L761,102.56c-.77-1.09-1.57-2.14-2.39-3.18l-2.45-3.12q-5-6.12-10.28-11.77a252.86,252.86,0,0,0-22.19-20.81Q718,58.88,712,54.48c-2-1.47-4-2.92-5.95-4.29L700,46A250.49,250.49,0,0,0,649.34,20.9a319.68,319.68,0,0,0-50-13.78,393.72,393.72,0,0,0-46.3-6C538.45.07,524.71-.15,512,.08S487.63,1,477.1,1.79,457.18,3.53,449,4.4l-1.88.45c-1.24.28-3.06.76-5.45,1.39s-5.33,1.38-8.76,2.38-7.38,2.17-11.78,3.54c-8.77,2.81-19.36,6.49-31.27,11.41a366.19,366.19,0,0,0-39.09,18.82c-3.51,1.9-7,4-10.6,6.11-1.78,1.07-3.56,2.2-5.36,3.31l-2.71,1.69-2.7,1.77q-10.89,7-21.88,15.57a299.59,299.59,0,0,0-42.6,40.05,265.14,265.14,0,0,0-19.11,24.71c-1.53,2.16-3,4.41-4.4,6.65-.72,1.13-1.46,2.24-2.16,3.38l-2.07,3.46-2.06,3.46c-.68,1.17-1.31,2.36-2,3.54l-2,3.55c-.68,1.23-1.21,2.27-1.84,3.47a287.47,287.47,0,0,0-23.2,60.42,255.89,255.89,0,0,0-8.37,64.83,222.08,222.08,0,0,0,2.41,32.4,224.73,224.73,0,0,0,7,31.05,221.56,221.56,0,0,0,11,28.68,210.21,210.21,0,0,0,14.3,25.61,214,214,0,0,0,34.41,40.65,218.71,218.71,0,0,0,18.12,14.95c6,4.43,11.84,8.33,17.51,11.72a198.52,198.52,0,0,0,30.67,15.11,109.72,109.72,0,0,0,21.6,6.18c5.35.82,8.64.52,9.58-.72" transform="translate(-14.97)"/><path class="cls-3" d="M524.15,823l-1.57.44c-1.05.26-2.62.77-4.71,1.23A138.09,138.09,0,0,1,499,827.83l-3.25.27-1.69.13-1.74.06-3.63.12c-1.25,0-2.5,0-3.81,0-2.62,0-5.31-.25-8.18-.45-1.42-.13-2.84-.36-4.33-.54-.73-.11-1.49-.19-2.24-.31l-2.25-.44a84.94,84.94,0,0,1-19.21-5.89c-1.64-.76-3.27-1.6-5-2.42-.85-.42-1.63-.93-2.47-1.4s-1.69-.93-2.48-1.48a68.8,68.8,0,0,1-9.53-7.32,63.81,63.81,0,0,1-8.44-9.84,78.2,78.2,0,0,1-7-12.26c-4.13-8.87-7.32-18.85-10.85-29a223.77,223.77,0,0,0-12.75-30.63,161.92,161.92,0,0,0-8.82-14.76,160.12,160.12,0,0,0-10.73-14c-3.9-4.54-8.13-8.93-12.58-13.22s-9.21-8.42-14.26-12.34L342,670.5l-1.93-1.45-3.87-2.9-4-2.8-2-1.4-2.06-1.35L324,657.89l-4.25-2.59-2.12-1.3-2.18-1.24-4.37-2.49-4.47-2.36-2.24-1.19-2.29-1.12-4.59-2.24-4.69-2.1-2.35-1.06-2.39-1-4.79-2-4.89-1.81-2.44-.9-2.48-.82c-6.59-2.31-13.4-4.12-20.26-5.79-3.46-.74-6.91-1.56-10.42-2.11s-7-1.11-10.56-1.6c-1.76-.25-3.55-.36-5.33-.55s-3.55-.36-5.34-.42l-5.37-.29-5.39-.06c-.89,0-1.79,0-2.69,0l-2.7.09c-1.79.08-3.6.07-5.39.21l-5.4.43-1.35.1-1.34.17-2.69.34c-3.6.35-7.16,1.09-10.74,1.67-1.78.36-3.55.79-5.33,1.18l-2.67.59-2.64.73A158.13,158.13,0,0,0,147,635.54l-5.12,2.24-5,2.47c-1.7.78-3.33,1.75-5,2.64l-2.48,1.35c-.83.45-1.62,1-2.44,1.45-1.61,1-3.27,1.92-4.85,3l-4.78,3.16c-3.11,2.24-6.27,4.43-9.27,6.88A180.9,180.9,0,0,0,90.6,674.4a192.29,192.29,0,0,0-15.51,18.15,183.12,183.12,0,0,0-23.86,42.27A158.45,158.45,0,0,0,40,782.11,131.62,131.62,0,0,0,40.39,806a116,116,0,0,0,4.89,23.21,124.51,124.51,0,0,0,9.62,22.45c1.94,3.7,4.23,7.31,6.54,10.95s4.93,7.2,7.71,10.73a228.25,228.25,0,0,0,18.4,20.85q10.17,10.21,21.87,20.14c7.78,6.65,16,13.25,24.69,20.11l12.34,9.41c1,.81,2.08,1.55,3.15,2.29l3.19,2.25c2.12,1.51,4.26,3,6.39,4.52,34.47,23.71,73.27,43.34,115.36,58.34,2.61,1,5.28,1.85,7.93,2.75l8,2.68c5.35,1.73,10.79,3.31,16.21,5,5.47,1.5,10.95,3.09,16.49,4.55l8.35,2.09,4.18,1.06c1.4.35,2.81.65,4.21,1q33.75,7.81,69.22,12.46a872.39,872.39,0,0,0,146.56,6" transform="translate(-14.97)"/><path class="cls-3" d="M695.79,562.92s.45.62,1.34,1.81l1.66,2.25,1.07,1.46c.37.53.74,1.12,1.14,1.73l2.71,4.17c.95,1.56,1.91,3.33,3,5.23.56.94,1.07,1.95,1.59,3s1.07,2.16,1.63,3.3,1.08,2.34,1.62,3.58l1.66,3.86A152.79,152.79,0,0,1,723,634.66a195.34,195.34,0,0,1-3.35,57.63,227.24,227.24,0,0,1-25.52,67.36c-3.25,5.79-6.95,11.48-10.86,17.21l-3.08,4.24-1.55,2.14-1.63,2.09-3.31,4.22-3.5,4.14c-2.31,2.81-4.87,5.46-7.37,8.21-1.29,1.34-2.61,2.65-3.93,4l-2,2-2.06,1.94-4.16,3.88-4.33,3.74-2.18,1.88L642,821.13c-1.51,1.2-3,2.43-4.55,3.62-6.18,4.7-12.64,9.25-19.43,13.5-1.69,1.09-3.43,2.07-5.16,3.11s-3.47,2.08-5.27,3l-5.37,3-5.5,2.79a244.34,244.34,0,0,1-48.06,17.92A202,202,0,0,1,493,874.52a160.3,160.3,0,0,1-30.58-3.81A134.18,134.18,0,0,1,431,859.43c-2.58-1.36-5.19-2.67-7.7-4.29l-3.8-2.35c-1.27-.76-2.5-1.72-3.75-2.58a104.88,104.88,0,0,1-14.56-12.39q-1.73-1.8-3.42-3.63t-3.24-3.87c-1.09-1.29-2.05-2.67-3.05-4s-2-2.74-2.86-4.15-1.84-2.82-2.64-4.24l-2.41-4.3c-1.46-2.84-2.9-5.74-4.09-8.54a166.57,166.57,0,0,1-6-16.19c-1.6-5.06-2.95-9.84-4.18-14.28s-2.37-8.54-3.52-12.4-2.29-7.5-3.53-10.89a124.55,124.55,0,0,0-8.38-18.77,119.93,119.93,0,0,0-11.31-16.73,175.11,175.11,0,0,0-32.05-30.29,207.53,207.53,0,0,0-40.14-23.12,183.57,183.57,0,0,0-43.77-12.87,158.82,158.82,0,0,0-22.07-1.78,130.69,130.69,0,0,0-21.63,1.46A146,146,0,0,0,161.93,654a147.81,147.81,0,0,0-20.09,8.2,151.73,151.73,0,0,0-19,11.3,160.27,160.27,0,0,0-17.43,14.26,168.63,168.63,0,0,0-28.64,35.5,157.76,157.76,0,0,0-17.5,41.4,124.13,124.13,0,0,0-3.75,42,107.71,107.71,0,0,0,11.41,39.19c1.57,3.22,3.42,6.4,5.31,9.6s4,6.37,6.3,9.52a198.81,198.81,0,0,0,15.21,18.76q8.4,9.27,18.18,18.34c6.47,6.07,13.37,12.09,20.56,18.23L138,924.9l1.39,1.17.69.58.65.53,2.58,2.1c3.46,2.8,6.87,5.66,10.34,8.44l10.61,8c1.75,1.38,3.58,2.63,5.4,3.9l5.44,3.84" transform="translate(-14.97)"/></g><path class="cls-4" d="M361.38,896.72c51.49,43,125.75,33.15,166.12,27.7,141-19,228-125.47,231.9-120.87,3.69,4.29-64.35,106.76-192.64,156.94-116.41,45.53-248.93,34.76-348.14-23-30-17.49-114.43-66.62-111.18-134,1.47-30.59,20.67-60.09,45.92-76.43,33.85-21.9,79.42-20.71,111.06-3.11C329.19,759.94,298,843.75,361.38,896.72Z" transform="translate(-14.97)"/></g></g></svg>