<svg xmlns="http://www.w3.org/2000/svg" viewBox="0 0 1098.4 1021.72"><defs><style>.cls-1{font-size:506.06px;fill:#6594c4;font-family:FredokaOne-Regular, Fredoka One;}.cls-2{fill:#b5c7e2;letter-spacing:0em;}.cls-3,.cls-4,.cls-7{opacity:0.8;}.cls-4{fill:#adc6e0;}.cls-5,.cls-6{fill:#b8cee4;}.cls-6{opacity:0.7;}.cls-7{fill:#a7c2dd;}</style></defs><g id="Layer_2" data-name="Layer 2"><g id="Layer_1-2" data-name="Layer 1"><text x="-8.7"/><text class="cls-1" transform="translate(335.84 664.01)">t<tspan class="cls-2" x="227.22" y="0">v</tspan></text><text x="-8.7"/><g class="cls-3"><path class="cls-4" d="M443.24,267.63c.59-4,1.61-10,2.77-15.89.6-3,1.2-5.93,1.81-8.63S449,238,449.47,236c0,2.21-1.45,11.4-2.66,23.17-.57,5.89-1.11,12.43-1.44,19s-.47,13.29-.42,19.47c.4,8.41,1.22,7.7,1.92,3.35a184,184,0,0,0,1.54-18.39c.72-13.15,2.18-27.57,4.43-42,1.15-7.23,2.51-14.47,4-21.57s3.23-14.05,5.1-20.71a344.51,344.51,0,0,1,11.89-35.43c3.9-10,7.63-17.73,9.73-22.6.69-1.39,1-2,.87-1.92a11.57,11.57,0,0,0-1.44,2.08c-.81,1.3-1.93,3.17-3.32,5.51s-2.87,5.25-4.63,8.48c-3.32,6.56-7.23,14.71-10.8,23.79a291.59,291.59,0,0,0-9.69,28.91c-1.51,6.05-2.76,12.14-3.95,18.25s-2.15,12.25-2.95,18.42" transform="translate(-8.7)"/><path class="cls-5" d="M1091.1,347.25c.31,1.87.6,3.72.9,5.54s.53,3.64.78,5.42.51,3.57.77,5.33.43,3.51.65,5.26c-.73-10-1.77-19.74-3.06-29.52s-2.89-19.61-4.89-29.79c-1-5.09-2.14-10.25-3.33-15.56-.65-2.64-1.3-5.31-2-8s-1.45-5.45-2.19-8.24c-3.08-11.13-6.79-22.88-11.52-35.43a76.85,76.85,0,0,0-3.83-8.87c-.73-1.33-.92-1.21-.71,0,.46,2.33,2.47,8.89,4.81,16.42A345.87,345.87,0,0,0,1052.66,217c-2.32-4.56-4.66-8.68-6.85-12.58-1.09-2-2.25-3.78-3.32-5.6s-2.13-3.6-3.24-5.29c-2.19-3.4-4.24-6.69-6.44-9.82L1029.6,179l-3.34-4.62c-4.45-6.21-9.26-12.39-14.83-19.28a361,361,0,0,1,27.43,39.64,392.85,392.85,0,0,1,22.35,43.57,432.08,432.08,0,0,1,16.93,46.09,457.59,457.59,0,0,1,11.48,47.15c.33,2.61.53,5.25.8,7.86l.38,3.93Z" transform="translate(-8.7)"/><path class="cls-6" d="M492.91,857.26q24.16,4.46,48.77,7.28c4.11.43,8.21,1,12.32,1.31l12.36,1.08,12.41.83c4.13.3,8.28.4,12.43.61,58,2,117.16-3.3,174.28-17.34,3.58-.82,7.13-1.79,10.67-2.74s7.12-1.85,10.63-2.93l10.57-3.13,10.48-3.39c13.93-4.66,27.69-9.8,41.16-15.57s26.64-12.17,39.49-19.08,25.28-14.54,37.33-22.63a397.91,397.91,0,0,0,34.62-26.11c5.57-4.57,10.85-9.46,16.16-14.28l7.71-7.48c1.3-1.23,2.54-2.52,3.77-3.81l3.72-3.86a366.64,366.64,0,0,0,50.88-67.39A408.37,408.37,0,0,0,1076.55,584a465.92,465.92,0,0,0,18.89-76.63c.18-1.88.61-5.31,1.13-9.23a484.16,484.16,0,0,1-24,93,436.31,436.31,0,0,1-19.1,43.93A373.33,373.33,0,0,1,966.31,747.7a430.1,430.1,0,0,1-78,54.4q-20.91,11.39-42.86,20.69c-3.67,1.51-7.3,3.12-11,4.54l-11.1,4.29-11.22,4c-3.73,1.34-7.53,2.49-11.29,3.75q-22.68,7.25-45.91,12.63c-15.48,3.54-31.11,6.43-46.83,8.77a656,656,0,0,1-190.61-.36c-4.45-.84-25.23-3.61-47.82-8.16,3.34.8,6.9,1.72,10.77,2.53S488.44,856.4,492.91,857.26Z" transform="translate(-8.7)"/><path class="cls-7" d="M103.69,603.5l1.57,2.91c.58,1.05,1.24,2.14,1.9,3.26l4,6.76,3.21,5.48,1,1.65c.23.39.37.6.37.6,37.07,51.39,78.52,92.71,127.48,127.85l4.62,3.27c1.54,1.1,3.09,2.19,4.68,3.23l9.48,6.34c6.44,4.08,12.9,8.25,19.61,12.16,13.34,7.89,27.19,15.53,41.79,22.57s29.78,13.78,45.74,20,32.68,12,50.26,17.15c3.76,1.18,7.36,2.23,11,3.45l5.44,1.86,5.68,1.86c3.89,1.26,8,2.7,12.66,4s9.74,2.89,15.6,4.29c22.59,4.55,43.37,7.32,47.82,8.16a656,656,0,0,0,190.61.36c15.72-2.34,31.35-5.23,46.83-8.77s30.79-7.8,45.91-12.63c3.76-1.26,7.56-2.41,11.29-3.75l11.22-4,11.1-4.29c3.7-1.42,7.33-3,11-4.54q21.9-9.33,42.86-20.69a430.1,430.1,0,0,0,78-54.4A373.33,373.33,0,0,0,1053.47,635a436.31,436.31,0,0,0,19.1-43.93,484.16,484.16,0,0,0,24-93c.18-1.28.37-2.59.55-3.9s.33-2.61.49-3.86c.33-2.5.63-4.78.86-6.48.41-3.4.59-4.46.17-.2,0,0,.47-4.35,1.21-11.25s1.5-16.36,2-26.59.87-21.22.92-31.16,0-18.81,0-24.83c.41,10.2.6,19.91.47,29.44,0,4.76-.19,9.48-.28,14.18s-.35,9.41-.68,14.14c-.51,9.47-1.37,19.05-2.45,29.06s-2.57,20.45-4.46,31.61c0-.24,0-.59.06-.93A465.92,465.92,0,0,1,1076.55,584a408.37,408.37,0,0,1-33.88,74.65A366.64,366.64,0,0,1,991.79,726l-3.72,3.86c-1.23,1.29-2.47,2.58-3.77,3.81l-7.71,7.48c-5.31,4.82-10.59,9.71-16.16,14.28a397.91,397.91,0,0,1-34.62,26.11c-12,8.09-24.49,15.69-37.33,22.63s-26,13.27-39.49,19.08-27.23,10.91-41.16,15.57l-10.48,3.39-10.57,3.13c-3.51,1.08-7.08,2-10.63,2.93s-7.09,1.92-10.67,2.74c-57.12,14-116.24,19.38-174.28,17.34a650.15,650.15,0,0,0,134.41-8.19,577.79,577.79,0,0,0,67-15.35c5.56-1.54,11-3.4,16.57-5.13,2.76-.85,5.48-1.87,8.23-2.8s5.49-1.87,8.22-2.89l8.16-3.08,4.09-1.55,4-1.66L850,824.4l8-3.53c42.82-19,83.64-44.67,119.23-77.52l6.56-6.29,3.28-3.16,3.18-3.26q3.16-3.27,6.34-6.55l6.12-6.79,3.06-3.4,2.95-3.51,5.89-7,5.63-7.26,2.82-3.64,2.69-3.75,5.37-7.51,5.1-7.71,2.54-3.87,2.43-4,2.43-3.95,2.34-4q9.33-16.07,17.14-33.07c6-13.27,11.57-27.27,16.5-41.68s9.15-29.23,12.71-44.06,6.43-29.67,8.62-44.16,3.68-28.6,4.63-42c.82-10.24,1.22-20.2,1.42-29.93s0-19.21-.39-28.52-1-18.44-2-27.44-2-17.87-3.35-26.68a506.33,506.33,0,0,0-10.89-52.45c-2.25-8.76-4.89-17.53-7.71-26.43s-6.06-17.84-9.56-26.95c-.91-2.26-1.8-4.5-2.68-6.7l-1.32-3.27-1.37-3.21c-.9-2.12-1.8-4.21-2.68-6.28s-1.84-4.08-2.75-6.08-1.82-4-2.75-5.92l-2.76-5.78c-1-1.89-1.9-3.76-2.85-5.62s-1.86-3.71-2.85-5.52a370.46,370.46,0,0,0-25.62-41.8c-2.49-3.37-4.94-6.86-7.65-10.25-1.34-1.71-2.68-3.46-4.07-5.19l-4.31-5.18c-1.44-1.76-3-3.48-4.53-5.22s-3.11-3.53-4.75-5.28c-3.31-3.48-6.7-7.09-10.4-10.62a300.84,300.84,0,0,0-56.17-43.13,272.31,272.31,0,0,0-33.94-17.24l-7.42-3.16c-2.52-1.09-5.2-2.06-8-3.2L880,34,877.64,33l-2.42-.91L864.47,28c-15.7-5.78-33.32-11.7-48.77-16L810,10.49l-2.74-.75-2.67-.64-9.81-2.32c-1.5-.38-2.94-.65-4.29-.91l-3.82-.71c-2.37-.44-4.37-.78-6-1A382,382,0,0,0,732.59,0,359.15,359.15,0,0,0,687,2.32L675.79,3.86c-1.86.22-3.7.6-5.55.94l-5.55,1-5.55,1-5.52,1.3-5.53,1.31c-1.85.43-3.7.86-5.53,1.43l-11,3.2c-3.67,1.17-7.32,2.51-11,3.76s-7.34,2.77-11,4.25l-5.54,2.26c-1.86.75-3.66,1.68-5.5,2.52l-8.91,4.18-9,4.79c-1.49.82-3,1.57-4.46,2.42l-4.26,2.6c-2.81,1.72-5.55,3.36-8.12,5-5,3.49-9.44,6.53-12.75,9.06s-5.47,4.54-6.23,5.36c-3.09,3.33-1.24,2.69-3.15,4.76-.93,1-2.7,2.91-6.4,6.34L532,74.28c-.58.54-1.21,1.1-1.86,1.71l-2,2-4.62,4.61c-1.68,1.7-3.42,3.65-5.37,5.72,1.48-1.38,3.21-3.06,5.12-4.91l6.38-5.78c1.09-1,2.3-2,3.5-3l3.6-3,3.57-3c1.18-1,2.32-2,3.53-2.78l6.62-4.79,2.81-2,1.26-.88,1.17-.73c3-1.81,4.51-2.65,3.71-1.88-4.24,3-8.71,6.83-13.56,10.73-2.47,1.89-4.75,4.14-7.14,6.29l-3.58,3.26C534,77,532.74,78,531.64,79.2c-2.26,2.3-4.53,4.55-6.69,6.8l-6.09,6.72c-3.74,4.46-7.13,8.54-9.66,12.11A240.64,240.64,0,0,1,557,60.76L567,54.12c1.58-1.1,3.26-2,4.84-2.88l4.65-2.6,4.34-2.47c1.47-.75,3-1.46,4.42-2.19L594,39.72l8.7-3.65L607,34.29l4.28-1.5,6.48-2.63c8.86-2.72,17.08-4.93,25.06-6.61,2-.43,3.94-.95,5.91-1.29l5.88-1,5.81-1c1.92-.38,3.89-.55,5.83-.84,2.43-.44,5.09-.89,7.92-1.36,1.41-.26,2.87-.4,4.37-.57l4.58-.5c6.2-.8,12.83-1.07,19.27-1.48,1.61-.13,3.22-.13,4.8-.17l4.69-.1,4.52-.12,2.18,0,2.12,0c2.79,0,5.39,0,7.75,0s4.47-.11,6.26-.09c-2.08.25-2,.54-.58.87l8.81.46c1.51.08,3,.14,4.6.24l4.71.42c3.19.29,6.48.55,9.85.88l10.42,1.29,3.26.62,3.78.87,8.43,1.93c1.44.31,2.87.68,4.27,1.07l4.08,1.08,6.89,1.84c6,1.28,14.93,3.08,22.3,5.06l5.19,1.3c1.6.39,3,.85,4.2,1.18l3.85,1.1c7.3,2.45,12.3,4.68,16.13,6.33a86.27,86.27,0,0,1,8.61,4.34c11.59,4.3,23.91,9.72,35.75,15.24,2,1.24,4.28,2.65,6.89,4.19l2,1.19,2.09,1.32,4.47,2.78,4.83,3,5,3.32,5.35,3.48c1.8,1.22,3.6,2.51,5.46,3.8l5.75,3.85,5.49,4c1.8,1.33,3.62,2.59,5.34,3.94l5.07,4c1.69,1.3,3.27,2.67,4.85,4s3.13,2.63,4.62,4l4.34,3.94c1.42,1.28,2.8,2.55,4.1,3.85a357.87,357.87,0,0,1,26.88,28c1.62,1.89,3.28,3.76,4.88,5.68l4.74,5.81c5.57,6.89,10.38,13.07,14.83,19.28l3.34,4.62,3.21,4.72c2.2,3.13,4.25,6.42,6.44,9.82,1.11,1.69,2.14,3.48,3.24,5.29s2.23,3.65,3.32,5.6c2.19,3.9,4.53,8,6.85,12.58a345.87,345.87,0,0,1,14.85,32.77c-2.34-7.53-4.35-14.09-4.81-16.42-.21-1.18,0-1.3.71,0a76.85,76.85,0,0,1,3.83,8.87c4.73,12.55,8.44,24.3,11.52,35.43.74,2.79,1.53,5.52,2.19,8.24s1.32,5.39,2,8c1.19,5.31,2.36,10.47,3.33,15.56,2,10.18,3.62,20,4.89,29.79s2.33,19.51,3.06,29.52c1.65,13.34,2.72,25.93,3.27,38.4s.57,24.83-.1,37.71c0,0-.32,2.61-.77,6.23s-1.14,8.25-1.7,12.3c-.29,3-.57,6.06-.86,9.08s-.68,6-1,9.05c-.9,9.06-2,17.91-3.43,26.63s-3.1,17.32-5.06,25.91-4.3,17.14-6.94,25.78-5.65,17.34-9.17,26.16a419.34,419.34,0,0,1-19.7,45.85,375.14,375.14,0,0,1-25.53,43.16c-1.65,2.5-3.36,5-5,7.42-.84,1.23-1.67,2.46-2.51,3.68s-1.74,2.38-2.61,3.57l-5.16,7c-1.73,2.27-3.52,4.44-5.22,6.59-1,1.37-2.14,2.85-3.37,4.39s-2.66,3.07-4.1,4.68-3,3.26-4.5,4.92-3.23,3.24-4.87,4.85l-4.89,4.74-4.87,4.34-4.49,3.93c-1.41,1.24-2.8,2.29-4,3.29l-5.57,5c-1.83,1.69-3.79,3.23-5.69,4.84l-5.72,4.8-5.9,4.62a424.71,424.71,0,0,1-38.26,27.69,418.83,418.83,0,0,1-41.24,23.25c-4.53,2.51-9,4.77-13.35,7s-8.61,4.36-12.74,6.5c1.39-.89,2.77-1.78,5.14-3.07,1.18-.66,2.63-1.37,4.41-2.32s3.92-2.06,6.55-3.39l-5.1,2.33-2.52,1.14-2.53,1.07-9.91,4.12c-3.26,1.27-6.48,2.47-9.6,3.64-1.57.58-3.1,1.18-4.64,1.7l-4.54,1.53c-3,1-5.87,2-8.68,2.84l-8.12,2.35c-5.18,1.51-10,2.55-14.19,3.47L781,839l-4.25,1.27-7.55,2.26c-2.21.67-4.08,1.13-5.38,1.5l-2.05.56c-3.35.61-8.29,1.56-13.51,2.36-46.57,11.23-96.54,17-139.92,16.86-3.09,0-1.55,0,1.93-.06s8.9-.42,13.57-.71,8.57-.79,9-1.08c.24-.15-.38-.28-2.19-.36s-4.8-.08-9.32-.2c-18.09-.22-38.31-.81-59-2.35s-41.91-4-61.88-7.39c-6.91-1.1-13.5-2.51-19.9-3.75-3.2-.67-6.33-1.4-9.42-2.08s-6.14-1.36-9.13-2.14l-9.85-2.31c-3.29-.8-6.59-1.69-9.94-2.52-1.67-.43-3.34-.86-5-1.28l-5.05-1.39-10.26-2.82C364.34,817,308.18,792.46,257.27,759a503.38,503.38,0,0,1-132-126.08l-6.72-9.35c-2.22-3.13-4.28-6.38-6.42-9.56l-3.19-4.8c-1-1.61-2.15-3.18-3.13-4.83l-6-9.82-3-4.91-2.86-5-5.69-10c-1-1.66-1.84-3.37-2.73-5.07l-2.68-5.11-2.68-5.1c-.9-1.7-1.8-3.39-2.62-5.13l-5-10.37c-.83-1.73-1.71-3.44-2.49-5.19l-2.36-5.26-4.71-10.51L58.51,512.2l-2.21-5.32-2.06-5.38-4.11-10.75L46.3,479.89l-1.91-5.43L42.61,469A710.2,710.2,0,0,1,8.7,289.67Q9.77,310,12,330t5.6,39.71C19.9,382.86,22.4,396,25.43,409l1.1,4.9,1.19,4.88q1.22,4.88,2.41,9.77t2.62,9.74l1.32,4.88c.44,1.63.94,3.24,1.41,4.86q1.44,4.86,2.87,9.74c1,3.25,2,6.47,3.08,9.72s2,6.52,3.18,9.74,2.25,6.47,3.39,9.72,2.32,6.49,3.55,9.72l3.68,9.74c1.28,3.24,2.63,6.46,4,9.71l2,4.87,1,2.44,1.07,2.42A600,600,0,0,0,103.69,603.5Z" transform="translate(-8.7)"/></g></g></g></svg>